<svg xmlns="http://www.w3.org/2000/svg" xmlns:xlink="http://www.w3.org/1999/xlink" width="110" height="90" viewBox="0 0 110 90">
  <defs>
    <clipPath id="clip-path">
      <rect id="Rect치ngulo_3224" data-name="Rect치ngulo 3224" width="68.543" height="51.217" fill="#3ec3f2"/>
    </clipPath>
  </defs>
  <g id="Grupo_7466" data-name="Grupo 7466" transform="translate(-1162 -2682)">
    <g id="Rect치ngulo_3222" data-name="Rect치ngulo 3222" transform="translate(1162 2682)" fill="#fff" stroke="#3ec3f2" stroke-width="1">
      <rect width="110" height="90" rx="9" stroke="none"/>
      <rect x="0.5" y="0.5" width="109" height="89" rx="8.5" fill="none"/>
    </g>
    <g id="Grupo_4294" data-name="Grupo 4294" transform="translate(1182.32 2701.432)">
      <g id="Grupo_4293" data-name="Grupo 4293" transform="translate(0 0)" clip-path="url(#clip-path)">
        <path id="Trazado_5661" data-name="Trazado 5661" d="M21.058,5.743H8.6a1.348,1.348,0,0,1,0-2.7H21.058a1.348,1.348,0,0,1,0,2.7" transform="translate(5.205 2.186)" fill="#3ec3f2"/>
        <path id="Trazado_5662" data-name="Trazado 5662" d="M13.979,9.043H9.885a1.348,1.348,0,0,1,0-2.7h4.094a1.348,1.348,0,0,1,0,2.7" transform="translate(6.124 4.553)" fill="#3ec3f2"/>
        <path id="Trazado_5663" data-name="Trazado 5663" d="M21.832,12.344H8.552a1.348,1.348,0,1,1,0-2.7h13.28a1.348,1.348,0,0,1,0,2.7" transform="translate(5.168 6.921)" fill="#3ec3f2"/>
        <path id="Trazado_5664" data-name="Trazado 5664" d="M14.437,15.644H9.886a1.348,1.348,0,0,1,0-2.7h4.551a1.348,1.348,0,0,1,0,2.7" transform="translate(6.124 9.288)" fill="#3ec3f2"/>
        <path id="Trazado_5665" data-name="Trazado 5665" d="M22.932,18.945H8.266a1.348,1.348,0,1,1,0-2.7H22.932a1.348,1.348,0,1,1,0,2.7" transform="translate(4.962 11.656)" fill="#3ec3f2"/>
        <path id="Trazado_5666" data-name="Trazado 5666" d="M61.886,36.343a.128.128,0,0,1-.026,0H3.539a1.347,1.347,0,0,1-1.346-1.393L3.321,1.3A1.348,1.348,0,0,1,4.667,0H60.8a1.347,1.347,0,0,1,1.346,1.307L63.2,34.685a1.327,1.327,0,0,1,.036.311,1.347,1.347,0,0,1-1.348,1.348m-56.953-2.7H60.469L59.494,2.7H5.97Z" transform="translate(1.572 0)" fill="#3ec3f2"/>
        <path id="Trazado_5667" data-name="Trazado 5667" d="M65.211,37.214H3.332A3.335,3.335,0,0,1,0,33.882v-.833a11.154,11.154,0,0,1,.658-3.776l3.184-8.858a1.351,1.351,0,0,1,1.269-.893H63.432a1.349,1.349,0,0,1,1.269.893l3.184,8.858a11.147,11.147,0,0,1,.658,3.776v.833a3.335,3.335,0,0,1-3.332,3.332m-59.153-15L3.194,30.185a8.45,8.45,0,0,0-.5,2.864v.833a.636.636,0,0,0,.635.635h61.88a.636.636,0,0,0,.635-.635v-.833a8.445,8.445,0,0,0-.5-2.864l-2.863-7.967Z" transform="translate(0 14.004)" fill="#3ec3f2"/>
        <path id="Trazado_5668" data-name="Trazado 5668" d="M22.7,28.04H19.622a1.348,1.348,0,1,1,0-2.7H22.7a1.348,1.348,0,0,1,0,2.7" transform="translate(13.108 18.18)" fill="#3ec3f2"/>
        <path id="Trazado_5669" data-name="Trazado 5669" d="M54.932,25.266H6.385a1.348,1.348,0,0,1,0-2.7H54.932a1.348,1.348,0,1,1,0,2.7" transform="translate(3.613 16.19)" fill="#3ec3f2"/>
        <path id="Trazado_5670" data-name="Trazado 5670" d="M31.3,28.783a1.361,1.361,0,0,1-.61-.146l-6-3.053a6.179,6.179,0,0,1-3.5-5.732l.469-12.6a1.343,1.343,0,0,1,.948-1.236l8.3-2.564a1.309,1.309,0,0,1,.8,0L40,6.013a1.345,1.345,0,0,1,.948,1.236l.469,12.6a6.178,6.178,0,0,1-3.5,5.732l-6,3.053a1.369,1.369,0,0,1-.611.146M24.317,8.305,23.884,19.95a3.514,3.514,0,0,0,2.03,3.23L31.3,25.922l5.389-2.741a3.515,3.515,0,0,0,2.032-3.23L38.291,8.305,31.3,6.147Z" transform="translate(15.198 2.43)" fill="#3ec3f2"/>
        <path id="Trazado_5671" data-name="Trazado 5671" d="M28.939,17.3a1.339,1.339,0,0,1-.977-.421l-3.909-4.127A1.347,1.347,0,0,1,26.009,10.9l2.834,2.992L32.9,8.716a1.349,1.349,0,0,1,2.123,1.664L30,16.784a1.356,1.356,0,0,1-1,.513c-.021,0-.043,0-.064,0" transform="translate(16.989 5.883)" fill="#3ec3f2"/>
      </g>
    </g>
  </g>
</svg>
