<svg xmlns="http://www.w3.org/2000/svg" xmlns:xlink="http://www.w3.org/1999/xlink" width="110" height="90" viewBox="0 0 110 90">
  <defs>
    <clipPath id="clip-path">
      <rect id="Rect치ngulo_3226" data-name="Rect치ngulo 3226" width="49.18" height="56.262" fill="#00c972"/>
    </clipPath>
  </defs>
  <g id="Grupo_7465" data-name="Grupo 7465" transform="translate(-1162 -2948)">
    <g id="Rect치ngulo_3220" data-name="Rect치ngulo 3220" transform="translate(1162 2948)" fill="#fff" stroke="#0fcc7a" stroke-width="1">
      <rect width="110" height="90" rx="9" stroke="none"/>
      <rect x="0.5" y="0.5" width="109" height="89" rx="8.5" fill="none"/>
    </g>
    <g id="Grupo_4298" data-name="Grupo 4298" transform="translate(1192.227 2965.324)">
      <g id="Grupo_4297" data-name="Grupo 4297" clip-path="url(#clip-path)">
        <path id="Trazado_5685" data-name="Trazado 5685" d="M49.128,10.54a.876.876,0,0,0-.722-.8C38.373,7.986,25.208.2,25.076.123a.876.876,0,0,0-.9,0C24.048.2,10.858,7.985.819,9.743A.877.877,0,0,0,.1,10.52,49.553,49.553,0,0,0,2.013,27.3,49.169,49.169,0,0,0,9.028,42.213,48.9,48.9,0,0,0,24.179,56.138a.875.875,0,0,0,.91-.007A49.7,49.7,0,0,0,39.928,42.145a51.316,51.316,0,0,0,7.033-14.9A51.37,51.37,0,0,0,49.128,10.54m-3.85,16.217a49.567,49.567,0,0,1-6.791,14.39A47.868,47.868,0,0,1,24.619,54.357a46.288,46.288,0,0,1-20.9-27.469A50.369,50.369,0,0,1,1.8,11.343C11.085,9.512,22.235,3.271,24.627,1.89c2.387,1.382,13.5,7.616,22.783,9.45a52.219,52.219,0,0,1-2.132,15.418" transform="translate(0 0.001)" fill="#00c972"/>
        <path id="Trazado_5686" data-name="Trazado 5686" d="M46.716,72.122a.874.874,0,0,0,.625-.262L68.84,50a.876.876,0,0,0-.008-1.237l-3.258-3.228a.891.891,0,0,0-.622-.253.875.875,0,0,0-.619.261L46.5,63.637l-3.619-3.153a.876.876,0,0,0-1.253.105L38.592,64.3a.876.876,0,0,0,.107,1.22l7.447,6.393a.874.874,0,0,0,.571.211m-4.3-9.723,3.559,3.1a.876.876,0,0,0,1.2-.046L64.965,47.4l2.014,2L46.666,70.048l-6.176-5.3Z" transform="translate(-27.348 -32.257)" fill="#00c972"/>
        <path id="Trazado_5687" data-name="Trazado 5687" d="M39.135,35.832a.876.876,0,0,0,1.752,0V23.766c.1.081.213.163.33.248a24.925,24.925,0,0,0,6.75,3.285.876.876,0,1,0,.554-1.662c-5.927-1.976-7.762-4.359-7.8-4.41,0-.007-.012-.012-.017-.019a.843.843,0,0,0-.083-.093c-.008-.008-.016-.018-.025-.025A.864.864,0,0,0,40.48,21c-.014-.009-.029-.016-.044-.025s-.034-.021-.052-.029-.027-.01-.04-.016l-.05-.019a.863.863,0,0,0-.115-.03l-.029-.007a.872.872,0,0,0-.145-.01l-.048,0a.844.844,0,0,0-.1.013l-.05.01a.846.846,0,0,0-.14.046l-.021.011a.875.875,0,0,0-.117.067l-.02.011-.018.016c-.012.009-.024.016-.035.025a46.219,46.219,0,0,1-17.183,8.266.875.875,0,0,0-.681.852c0,.3.01,7.394,2.435,13.131a.876.876,0,0,0,1.614-.682,36.319,36.319,0,0,1-2.281-11.758A47.812,47.812,0,0,0,39.135,23.5Z" transform="translate(-15.376 -14.862)" fill="#00c972"/>
        <path id="Trazado_5688" data-name="Trazado 5688" d="M82.178,72.612a.876.876,0,0,0-1.048.661A55.606,55.606,0,0,1,77.49,83.324c-2.224,4.744-6.053,11.194-11.914,15.9V90.663a.876.876,0,1,0-1.752,0v8.506a39.942,39.942,0,0,1-5.992-5.589.876.876,0,0,0-1.416,1.031c.066.091,1.687,2.285,7.741,7.073a.887.887,0,0,0,.139.089c.013.007.027.012.04.018a.919.919,0,0,0,.134.049l.05.013a.864.864,0,0,0,.178.021h0a.882.882,0,0,0,.173-.02l.041-.009a.866.866,0,0,0,.155-.054l.012,0,0,0,.033-.019a.879.879,0,0,0,.082-.049l.009-.005c6.961-4.981,11.383-12.344,13.867-17.643A56.413,56.413,0,0,0,82.838,73.66a.876.876,0,0,0-.661-1.048" transform="translate(-40.066 -51.706)" fill="#00c972"/>
      </g>
    </g>
  </g>
</svg>
