<svg xmlns="http://www.w3.org/2000/svg" width="111" height="90" viewBox="0 0 111 90">
  <g id="Grupo_7463" data-name="Grupo 7463" transform="translate(-387 -2948)">
    <g id="Rectángulo_3221" data-name="Rectángulo 3221" transform="translate(387 2948)" fill="#fff" stroke="#e29e3d" stroke-width="1">
      <rect width="111" height="90" rx="9" stroke="none"/>
      <rect x="0.5" y="0.5" width="110" height="89" rx="8.5" fill="none"/>
    </g>
    <g id="Grupo_3449" data-name="Grupo 3449" transform="translate(411.377 2968.434)">
      <path id="Trazado_1024" data-name="Trazado 1024" d="M57.374,51.621H4.652A4.658,4.658,0,0,1,0,46.969V6.652A4.658,4.658,0,0,1,4.652,2H57.374a4.658,4.658,0,0,1,4.652,4.652V46.969A4.658,4.658,0,0,1,57.374,51.621ZM4.652,5.1A1.551,1.551,0,0,0,3.1,6.652V46.969A1.551,1.551,0,0,0,4.652,48.52H57.374a1.551,1.551,0,0,0,1.551-1.551V6.652A1.551,1.551,0,0,0,57.374,5.1Z" transform="translate(0 -2)" fill="#e29e3d"/>
      <path id="Trazado_1025" data-name="Trazado 1025" d="M24.838,8.36H4.68A1.68,1.68,0,1,1,4.68,5H24.838a1.68,1.68,0,0,1,0,3.36Z" transform="translate(5.886 4.252)" fill="#e29e3d"/>
      <path id="Trazado_1026" data-name="Trazado 1026" d="M24.838,11.36H4.68A1.68,1.68,0,0,1,4.68,8H24.838a1.68,1.68,0,0,1,0,3.36Z" transform="translate(5.886 10.504)" fill="#e29e3d"/>
      <path id="Trazado_1027" data-name="Trazado 1027" d="M24.838,13.36H4.68a1.68,1.68,0,0,1,0-3.36H24.838a1.68,1.68,0,0,1,0,3.36Z" transform="translate(5.886 14.672)" fill="#e29e3d"/>
      <path id="Trazado_1028" data-name="Trazado 1028" d="M24.838,15.36H4.68a1.68,1.68,0,1,1,0-3.36H24.838a1.68,1.68,0,0,1,0,3.36Z" transform="translate(5.886 18.84)" fill="#e29e3d"/>
      <path id="Trazado_1029" data-name="Trazado 1029" d="M21.479,17.36H4.68a1.68,1.68,0,0,1,0-3.36h16.8a1.68,1.68,0,0,1,0,3.36Z" transform="translate(5.972 23.008)" fill="#e29e3d"/>
      <path id="Trazado_1030" data-name="Trazado 1030" d="M31.828,11.589,29.1,9.6,28.051,6.392H24.675L21.943,4.406,19.212,6.392H15.835L14.79,9.6l-2.731,1.986L13.1,14.8l-1.045,3.212L14.79,20l.443,1.364a1.242,1.242,0,0,0-.007.158v16.8A1.682,1.682,0,0,0,18.1,39.509l3.85-3.85,3.85,3.85a1.684,1.684,0,0,0,1.831.363,1.68,1.68,0,0,0,1.038-1.552v-16.8c0-.054,0-.108-.007-.158L29.1,20l2.731-1.986L30.79,14.8l1.045-3.212ZM16,12.873l1.64-1.193.628-1.928H20.3l1.64-1.193,1.64,1.193h2.029l.628,1.928,1.64,1.193L27.248,14.8l.628,1.928-1.64,1.193-.628,1.928H23.58l-1.64,1.193L20.3,19.851H18.271l-.628-1.928L16,16.73l.628-1.928L16,12.873ZM23.129,32.09a1.681,1.681,0,0,0-2.375,0l-2.17,2.17V23.207h.628l2.731,1.986,2.731-1.986H25.3V34.261l-2.17-2.17Z" transform="translate(23.287 1.837)" fill="#e29e3d"/>
    </g>
  </g>
</svg>
