<svg xmlns="http://www.w3.org/2000/svg" width="31.813" height="32.072" viewBox="713.593 1285.464 31.813 32.072"><g data-name="whatsapp"><path d="M728.722 1285.482c-8.47.404-15.154 7.458-15.128 15.938.007 2.582.63 5.02 1.73 7.174l-1.688 8.198a.62.62 0 0 0 .75.727l8.032-1.903a15.832 15.832 0 0 0 6.835 1.66c8.657.131 15.876-6.743 16.146-15.397.289-9.277-7.368-16.84-16.677-16.397Zm9.585 24.695a12.373 12.373 0 0 1-8.807 3.648c-1.948 0-3.813-.437-5.543-1.299l-1.119-.557-4.925 1.167 1.037-5.032-.551-1.08a12.316 12.316 0 0 1-1.354-5.654c0-3.326 1.296-6.454 3.648-8.807a12.477 12.477 0 0 1 8.807-3.648c3.327 0 6.455 1.296 8.807 3.648a12.374 12.374 0 0 1 3.648 8.807c0 3.297-1.317 6.476-3.648 8.807Z" fill="#060705" fill-rule="evenodd" data-name="Trazado 1003"/><path d="m737.22 1304.82-3.081-.885a1.148 1.148 0 0 0-1.137.3l-.753.767c-.318.324-.8.428-1.22.258-1.458-.59-4.524-3.316-5.307-4.68a1.122 1.122 0 0 1 .089-1.244l.658-.85c.257-.334.312-.782.141-1.167l-1.296-2.932a1.149 1.149 0 0 0-1.794-.41c-.86.726-1.88 1.832-2.004 3.056-.219 2.159.707 4.88 4.208 8.148 4.044 3.775 7.283 4.273 9.392 3.762 1.196-.29 2.152-1.45 2.755-2.402a1.149 1.149 0 0 0-.651-1.721Z" fill="#060705" fill-rule="evenodd" data-name="Trazado 1004"/></g></svg>