<svg id="Grupo_5515" data-name="Grupo 5515" xmlns="http://www.w3.org/2000/svg" xmlns:xlink="http://www.w3.org/1999/xlink" width="29.339" height="16.459" viewBox="0 0 29.339 16.459">
  <defs>
    <clipPath id="clip-path">
      <rect id="Rectángulo_4299" data-name="Rectángulo 4299" width="29.339" height="16.459"/>
    </clipPath>
  </defs>
  <g id="Grupo_5509" data-name="Grupo 5509" transform="translate(0 0)" clip-path="url(#clip-path)">
    <path id="Trazado_6965" data-name="Trazado 6965" d="M18.7,16.459H3.327A3.331,3.331,0,0,1,0,13.132v-9.8A3.332,3.332,0,0,1,3.327,0H18.7a3.332,3.332,0,0,1,3.328,3.328v9.8A3.331,3.331,0,0,1,18.7,16.459M3.327,2.421a.908.908,0,0,0-.908.908v9.8a.909.909,0,0,0,.908.908H18.7a.909.909,0,0,0,.908-.908v-9.8a.908.908,0,0,0-.908-.908Z" transform="translate(0.001 0)" fill="white"/>
    <path id="Trazado_6966" data-name="Trazado 6966" d="M121.443,21.358a1.925,1.925,0,0,1-.966-.259l-6.233-3.6a1.21,1.21,0,1,1,1.21-2.1l5.5,3.174V10.26l-5.5,3.173a1.21,1.21,0,1,1-1.21-2.1l6.235-3.6a1.929,1.929,0,0,1,2.893,1.671V19.429a1.927,1.927,0,0,1-1.929,1.929" transform="translate(-94.033 -6.189)" fill="white"/>
  </g>
</svg>
