<svg xmlns="http://www.w3.org/2000/svg" width="33.029" height="22"><g data-name="Grupo 5507" clip-path="url(&quot;#a&quot;)"><path d="M9.454 11c0 1.358.397 2.625 1.08 3.692.42.655 1.335.758 1.884.209l.11-.11c.41-.41.452-1.041.146-1.534A4.263 4.263 0 0 1 12.031 11c0-.828.236-1.602.643-2.257.306-.493.263-1.124-.147-1.535l-.11-.11a1.216 1.216 0 0 0-1.883.21A6.824 6.824 0 0 0 9.454 11" fill="white" fill-rule="evenodd" data-name="Trazado 6957"/><path d="M4.73 11c0 2.7.93 5.187 2.484 7.16a1.22 1.22 0 0 0 1.822.122l.11-.108a1.2 1.2 0 0 0 .106-1.588A8.97 8.97 0 0 1 7.308 11a8.97 8.97 0 0 1 1.944-5.587 1.2 1.2 0 0 0-.106-1.587l-.11-.109a1.22 1.22 0 0 0-1.822.123A11.533 11.533 0 0 0 4.73 11" fill="white" fill-rule="evenodd" data-name="Trazado 6958"/><path d="M0 11c0 4.037 1.473 7.735 3.91 10.587.454.532 1.273.55 1.767.055l.11-.11a1.213 1.213 0 0 0 .056-1.647A13.684 13.684 0 0 1 2.577 11c0-3.385 1.23-6.488 3.266-8.886A1.213 1.213 0 0 0 5.787.467l-.11-.11C5.182-.137 4.364-.119 3.91.412A16.25 16.25 0 0 0 0 11" fill="white" fill-rule="evenodd" data-name="Trazado 6959"/><path d="M16.515 8.674a2.326 2.326 0 1 1 0 4.652 2.326 2.326 0 0 1 0-4.652" fill="white" fill-rule="evenodd" data-name="Trazado 6960"/><path d="M23.574 11a6.824 6.824 0 0 0-1.08-3.693 1.216 1.216 0 0 0-1.883-.209l-.11.11c-.41.41-.453 1.042-.147 1.535.408.655.644 1.43.644 2.257 0 .827-.236 1.601-.644 2.257-.306.493-.263 1.124.147 1.534l.11.11a1.216 1.216 0 0 0 1.883-.209A6.824 6.824 0 0 0 23.574 11" fill="white" fill-rule="evenodd" data-name="Trazado 6961"/><path d="M28.298 11c0-2.7-.928-5.188-2.482-7.16a1.22 1.22 0 0 0-1.823-.123l-.11.109a1.2 1.2 0 0 0-.106 1.587A8.97 8.97 0 0 1 25.722 11a8.97 8.97 0 0 1-1.945 5.586 1.2 1.2 0 0 0 .107 1.588l.109.108a1.22 1.22 0 0 0 1.823-.122A11.533 11.533 0 0 0 28.298 11" fill="white" fill-rule="evenodd" data-name="Trazado 6962"/><path d="M33.03 11A16.25 16.25 0 0 0 29.12.412c-.455-.531-1.273-.549-1.767-.055l-.11.11a1.213 1.213 0 0 0-.057 1.647A13.684 13.684 0 0 1 30.453 11c0 3.385-1.23 6.488-3.267 8.885a1.213 1.213 0 0 0 .057 1.647l.11.11c.494.494 1.312.477 1.766-.055A16.25 16.25 0 0 0 33.03 11" fill="white" fill-rule="evenodd" data-name="Trazado 6963"/><path d="M16.515 13.326a2.326 2.326 0 1 1 0-4.653 2.326 2.326 0 0 1 0 4.653" fill="white" fill-rule="evenodd" data-name="Trazado 6964"/></g><defs><clipPath id="a"><path d="M0 0h33.03v22H0V0z" data-name="Rectángulo 4298"/></clipPath></defs></svg>