<svg xmlns="http://www.w3.org/2000/svg" width="20.041" height="20.561" viewBox="1711.959 118.5 20.041 20.561"><g data-name="gift"><path d="M1726.75 122.95c.154-.078.303-.168.444-.267 1.148-.805 1.501-2.287.786-3.3-.715-1.014-2.224-1.18-3.371-.366-1.148.813-1.737 2.251-2.378 3.93l4.52.003Zm-13.926 5.227h18.315v9.313c0 .868-.703 1.571-1.571 1.571h-15.172a1.572 1.572 0 0 1-1.572-1.571v-9.313Z" stroke-linejoin="round" stroke-linecap="round" stroke-width="2" stroke="#3F8DFD" fill="transparent" data-name="Trazado 5363"/><path d="M1719.681 128.177h4.598v10.884h0-4.598 0v-10.884h0z" stroke-linejoin="round" stroke-linecap="round" stroke-width="2" stroke="#3F8DFD" fill="transparent" data-name="Rectángulo 1450"/><path d="M1717.21 122.95a3.368 3.368 0 0 1-.44-.267c-1.148-.805-1.506-2.287-.787-3.3.72-1.014 2.224-1.18 3.376-.366 1.151.813 1.733 2.251 2.377 3.93l-4.527.003Z" stroke-linejoin="round" stroke-linecap="round" stroke-width="2" stroke="#3F8DFD" fill="transparent" data-name="Trazado 5364"/><path d="M1714.573 122.95h14.814a2.613 2.613 0 0 1 2.613 2.613h0a2.613 2.613 0 0 1-2.613 2.614h-14.814a2.613 2.613 0 0 1-2.614-2.614h0a2.613 2.613 0 0 1 2.614-2.613z" stroke-linejoin="round" stroke-linecap="round" stroke-width="2" stroke="#3F8DFD" fill="transparent" data-name="Rectángulo 1451"/><path d="M1719.264 122.95h5.435v5.227h0-5.435 0v-5.227h0z" stroke-linejoin="round" stroke-linecap="round" stroke-width="2" stroke="#3F8DFD" fill="transparent" data-name="Rectángulo 1452"/></g></svg>