<svg xmlns="http://www.w3.org/2000/svg" width="29.339" height="16.459" viewBox="1013.972 915 29.339 16.459"><g data-name="Grupo 5510"><g data-name="Grupo 5509" transform="translate(1013.972 915)" clip-path="url(&quot;#a&quot;)"><path d="M18.697 16.46H3.327A3.331 3.331 0 0 1 0 13.131V3.328A3.332 3.332 0 0 1 3.328 0h15.37a3.332 3.332 0 0 1 3.327 3.328v9.804a3.331 3.331 0 0 1-3.328 3.327M3.327 2.421a.908.908 0 0 0-.907.907v9.804c0 .5.407.907.908.907h15.37a.909.909 0 0 0 .907-.907V3.328c0-.5-.407-.907-.908-.907H3.327Z" fill="#0D6EFD" fill-rule="evenodd" data-name="Trazado 6965"/><path d="M27.41 15.17c-.335 0-.668-.087-.966-.26l-6.234-3.598a1.21 1.21 0 0 1 1.21-2.096l5.498 3.174V4.07L21.42 7.245a1.21 1.21 0 0 1-1.21-2.096l6.235-3.6A1.93 1.93 0 0 1 29.34 3.22V13.24c0 .688-.37 1.329-.966 1.672-.297.172-.63.257-.963.257" fill="#0D6EFD" fill-rule="evenodd" data-name="Trazado 6966"/></g></g><defs><clipPath id="a"><path d="M0 0h29.339v16.46H0V0z" data-name="Rectángulo 4299"/></clipPath></defs></svg>